HIERARCHY
ROOT hip
{
  OFFSET 0 90.174 2.4664
  CHANNELS 6 Xposition Yposition Zposition Zrotation Xrotation Yrotation
  JOINT abdomen
  {
    OFFSET 0 -1.186 -1.5018
    CHANNELS 6 Xposition Yposition Zposition Zrotation Xrotation Yrotation
    JOINT abdomen2
    {
      OFFSET 0 9.964 0.2134
      CHANNELS 6 Xposition Yposition Zposition Zrotation Xrotation Yrotation
      JOINT chest
      {
        OFFSET 0 13.134 -3.2573
        CHANNELS 6 Xposition Yposition Zposition Zrotation Xrotation Yrotation
        JOINT neck
        {
          OFFSET 0 20.686 -1.6905
          CHANNELS 6 Xposition Yposition Zposition Zrotation Xrotation Yrotation
          JOINT head
          {
            OFFSET 0 7.238 -0.1237
            CHANNELS 6 Xposition Yposition Zposition Zrotation Xrotation Yrotation
            End Site
            {
              OFFSET 0 0 0
            }
          }
        }
        JOINT lCollar
        {
          OFFSET 1.7069 20.075 5.0056
          CHANNELS 6 Xposition Yposition Zposition Zrotation Xrotation Yrotation
          JOINT lShldr
          {
            OFFSET 13.6458 -0.047 -4.849
            CHANNELS 6 Xposition Yposition Zposition Zrotation Xrotation Yrotation
            JOINT lForeArm
            {
              OFFSET 28.3255 -0.9759 2.2888
              CHANNELS 6 Xposition Yposition Zposition Zrotation Xrotation Yrotation
              JOINT lHand
              {
                OFFSET 22.1583 -0.53 10.8316
                CHANNELS 6 Xposition Yposition Zposition Zrotation Xrotation Yrotation
                JOINT lThumb1
                {
                  OFFSET 0.786 0.112 2.5817
                  CHANNELS 6 Xposition Yposition Zposition Zrotation Xrotation Yrotation
                  JOINT lThumb2
                  {
                    OFFSET 0.3601 -0.878 4.2331
                    CHANNELS 6 Xposition Yposition Zposition Zrotation Xrotation Yrotation
                    JOINT lThumb2_End
                    {
                      OFFSET 1.8127 -1.216 2.2227
                      CHANNELS 6 Xposition Yposition Zposition Zrotation Xrotation Yrotation
                      End Site
                      {
                        OFFSET 0.0181 -0.0122 0.0222
                      }
                    }
                  }
                }
                JOINT lCarpal1
                {
                  OFFSET 0.9571 1.114 1.7695
                  CHANNELS 6 Xposition Yposition Zposition Zrotation Xrotation Yrotation
                  JOINT lIndex1
                  {
                    OFFSET 4.1246 0.487 4.1451
                    CHANNELS 6 Xposition Yposition Zposition Zrotation Xrotation Yrotation
                    JOINT lIndex2
                    {
                      OFFSET 3.4052 -1.454 2.7682
                      CHANNELS 6 Xposition Yposition Zposition Zrotation Xrotation Yrotation
                      JOINT lIndex2_End
                      {
                        OFFSET 1.4531 -1.795 1.2713
                        CHANNELS 6 Xposition Yposition Zposition Zrotation Xrotation Yrotation
                        End Site
                        {
                          OFFSET 0.0145 -0.0179 0.0127
                        }
                      }
                    }
                  }
                  JOINT lMid1
                  {
                    OFFSET 5.6954 0.21 2.1184
                    CHANNELS 6 Xposition Yposition Zposition Zrotation Xrotation Yrotation
                    JOINT lMid2
                    {
                      OFFSET 3.9766 -1.54 2.3863
                      CHANNELS 6 Xposition Yposition Zposition Zrotation Xrotation Yrotation
                      JOINT lMid2_End
                      {
                        OFFSET 1.4042 -1.926 1.125
                        CHANNELS 6 Xposition Yposition Zposition Zrotation Xrotation Yrotation
                        End Site
                        {
                          OFFSET 0.014 -0.0193 0.0113
                        }
                      }
                    }
                  }
                }
                JOINT lCarpal2
                {
                  OFFSET 2.0956 0.66 -0.3894
                  CHANNELS 6 Xposition Yposition Zposition Zrotation Xrotation Yrotation
                  JOINT lRing1
                  {
                    OFFSET 5.0395 -0.09 2.4971
                    CHANNELS 6 Xposition Yposition Zposition Zrotation Xrotation Yrotation
                    JOINT lRing2
                    {
                      OFFSET 3.7921 -1.552 1.4806
                      CHANNELS 6 Xposition Yposition Zposition Zrotation Xrotation Yrotation
                      JOINT lRing2_End
                      {
                        OFFSET 1.4655 -1.808 0.9609
                        CHANNELS 6 Xposition Yposition Zposition Zrotation Xrotation Yrotation
                        End Site
                        {
                          OFFSET 0.0147 -0.0181 0.0096
                        }
                      }
                    }
                  }
                  JOINT lPinky1
                  {
                    OFFSET 4.9141 -1.269 0.3591
                    CHANNELS 6 Xposition Yposition Zposition Zrotation Xrotation Yrotation
                    JOINT lPinky2
                    {
                      OFFSET 3.1477 -1.685 0.8462
                      CHANNELS 6 Xposition Yposition Zposition Zrotation Xrotation Yrotation
                      JOINT lPinky2_End
                      {
                        OFFSET 0.8055 -1.585 0.7955
                        CHANNELS 6 Xposition Yposition Zposition Zrotation Xrotation Yrotation
                        End Site
                        {
                          OFFSET 0.0081 -0.0158 0.008
                        }
                      }
                    }
                  }
                }
              }
            }
          }
        }
        JOINT rCollar
        {
          OFFSET -1.7069 20.075 5.0056
          CHANNELS 6 Xposition Yposition Zposition Zrotation Xrotation Yrotation
          JOINT rShldr
          {
            OFFSET -13.6458 -0.047 -4.849
            CHANNELS 6 Xposition Yposition Zposition Zrotation Xrotation Yrotation
            JOINT rForeArm
            {
              OFFSET -28.3255 -0.9759 2.2888
              CHANNELS 6 Xposition Yposition Zposition Zrotation Xrotation Yrotation
              JOINT rHand
              {
                OFFSET -22.1583 -0.53 10.8316
                CHANNELS 6 Xposition Yposition Zposition Zrotation Xrotation Yrotation
                JOINT rThumb1
                {
                  OFFSET -0.786 0.112 2.5817
                  CHANNELS 6 Xposition Yposition Zposition Zrotation Xrotation Yrotation
                  JOINT rThumb2
                  {
                    OFFSET -0.3601 -0.878 4.2331
                    CHANNELS 6 Xposition Yposition Zposition Zrotation Xrotation Yrotation
                    JOINT rThumb2_End
                    {
                      OFFSET -1.8127 -1.216 2.2227
                      CHANNELS 6 Xposition Yposition Zposition Zrotation Xrotation Yrotation
                      End Site
                      {
                        OFFSET -0.0181 -0.0122 0.0222
                      }
                    }
                  }
                }
                JOINT rCarpal1
                {
                  OFFSET -0.9571 1.114 1.7695
                  CHANNELS 6 Xposition Yposition Zposition Zrotation Xrotation Yrotation
                  JOINT rIndex1
                  {
                    OFFSET -4.1246 0.487 4.1451
                    CHANNELS 6 Xposition Yposition Zposition Zrotation Xrotation Yrotation
                    JOINT rIndex2
                    {
                      OFFSET -3.4052 -1.454 2.7682
                      CHANNELS 6 Xposition Yposition Zposition Zrotation Xrotation Yrotation
                      JOINT rIndex2_End
                      {
                        OFFSET -1.4531 -1.795 1.2713
                        CHANNELS 6 Xposition Yposition Zposition Zrotation Xrotation Yrotation
                        End Site
                        {
                          OFFSET -0.0145 -0.018 0.0127
                        }
                      }
                    }
                  }
                  JOINT rMid1
                  {
                    OFFSET -5.6954 0.21 2.1184
                    CHANNELS 6 Xposition Yposition Zposition Zrotation Xrotation Yrotation
                    JOINT rMid2
                    {
                      OFFSET -3.9766 -1.54 2.3863
                      CHANNELS 6 Xposition Yposition Zposition Zrotation Xrotation Yrotation
                      JOINT rMid2_End
                      {
                        OFFSET -1.4042 -1.926 1.125
                        CHANNELS 6 Xposition Yposition Zposition Zrotation Xrotation Yrotation
                        End Site
                        {
                          OFFSET -0.014 -0.0193 0.0113
                        }
                      }
                    }
                  }
                }
                JOINT rCarpal2
                {
                  OFFSET -2.0956 0.66 -0.3894
                  CHANNELS 6 Xposition Yposition Zposition Zrotation Xrotation Yrotation
                  JOINT rRing1
                  {
                    OFFSET -5.0395 -0.09 2.4971
                    CHANNELS 6 Xposition Yposition Zposition Zrotation Xrotation Yrotation
                    JOINT rRing2
                    {
                      OFFSET -3.7921 -1.552 1.4806
                      CHANNELS 6 Xposition Yposition Zposition Zrotation Xrotation Yrotation
                      JOINT rRing2_End
                      {
                        OFFSET -1.4655 -1.808 0.9609
                        CHANNELS 6 Xposition Yposition Zposition Zrotation Xrotation Yrotation
                        End Site
                        {
                          OFFSET -0.0147 -0.0181 0.0096
                        }
                      }
                    }
                  }
                  JOINT rPinky1
                  {
                    OFFSET -4.9141 -1.269 0.3592
                    CHANNELS 6 Xposition Yposition Zposition Zrotation Xrotation Yrotation
                    JOINT rPinky2
                    {
                      OFFSET -3.1477 -1.685 0.8462
                      CHANNELS 6 Xposition Yposition Zposition Zrotation Xrotation Yrotation
                      JOINT rPinky2_End
                      {
                        OFFSET -0.8055 -1.585 0.7955
                        CHANNELS 6 Xposition Yposition Zposition Zrotation Xrotation Yrotation
                        End Site
                        {
                          OFFSET -0.0081 -0.0158 0.008
                        }
                      }
                    }
                  }
                }
              }
            }
          }
        }
      }
    }
  }
  JOINT lThigh
  {
    OFFSET 8.367 -8.2066 0.5982
    CHANNELS 6 Xposition Yposition Zposition Zrotation Xrotation Yrotation
    JOINT lShin
    {
      OFFSET 2.1923 -43.463 -0.4932
      CHANNELS 6 Xposition Yposition Zposition Zrotation Xrotation Yrotation
      JOINT lFoot
      {
        OFFSET 0.7333 -45.8593 -2.6451
        CHANNELS 6 Xposition Yposition Zposition Zrotation Xrotation Yrotation
        End Site
        {
          OFFSET 2.6618 -4.2699 12.3931
        }
      }
    }
  }
  JOINT rThigh
  {
    OFFSET -8.367 -8.2066 0.5982
    CHANNELS 6 Xposition Yposition Zposition Zrotation Xrotation Yrotation
    JOINT rShin
    {
      OFFSET -2.1923 -43.463 -0.4931
      CHANNELS 6 Xposition Yposition Zposition Zrotation Xrotation Yrotation
      JOINT rFoot
      {
        OFFSET -0.7333 -45.8593 -2.6451
        CHANNELS 6 Xposition Yposition Zposition Zrotation Xrotation Yrotation
        End Site
        {
          OFFSET -2.6618 -4.2699 12.3931
        }
      }
    }
  }
}
MOTION
Frames:	4
Frame Time:	0.0333333
0 90.174 2.4664 0 0 -0 0 -1.186 -1.5018 0 0 -0 0 9.964 0.2134 0 0 -0 0 13.134 -3.2573 0 0 -0 0 20.686 -1.6905 0 0 -0 0 7.238 -0.1237 0 0 -0 1.7069 20.075 5.0056 0 0 -0 13.6458 -0.047 -4.849 1.66051 0.0835086 5.75766 28.3255 -0.9759 2.2888 -0.0175111 0.895433 15.7816 22.1583 -0.53 10.8316 7.95139e-016 -1.98785e-016 -0 0.786 0.112 2.5817 5.46658e-016 -3.97569e-016 -0 0.3601 -0.878 4.2331 5.96354e-016 0 -0 1.8127 -1.216 2.2227 3.97569e-016 1.98785e-016 9.54166e-015 0.9571 1.114 1.7695 1.49089e-016 -3.97569e-016 -0 4.1246 0.487 4.1451 6.4605e-016 0 3.18055e-015 3.4052 -1.454 2.7682 5.96354e-016 0 3.18055e-015 1.4531 -1.795 1.2713 8.94531e-016 -1.98785e-016 6.36111e-015 5.6954 0.21 2.1184 6.4605e-016 0 3.18055e-015 3.9766 -1.54 2.3863 5.96354e-016 0 3.18055e-015 1.4042 -1.926 1.125 8.94531e-016 -1.98785e-016 6.36111e-015 2.0956 0.66 -0.3894 1.49089e-016 -3.97569e-016 -0 5.0395 -0.09 2.4971 6.4605e-016 0 3.18055e-015 3.7921 -1.552 1.4806 5.96354e-016 0 3.18055e-015 1.4655 -1.808 0.9609 8.94531e-016 -1.98785e-016 6.36111e-015 4.9141 -1.269 0.3591 6.4605e-016 0 3.18055e-015 3.1477 -1.685 0.8462 5.96354e-016 0 3.18055e-015 0.8055 -1.585 0.7955 8.94531e-016 -1.98785e-016 6.36111e-015 -1.7069 20.075 5.0056 0 0 -0 -13.6458 -0.047 -4.849 -1.4496 0.0636048 -5.0245 -28.3255 -0.9759 2.2888 -1.74811 1.20616 -16.8394 -22.1583 -0.53 10.8316 -1.19271e-015 1.98785e-016 -3.18055e-015 -0.786 0.112 2.5817 -3.97569e-016 1.98785e-016 -3.18055e-015 -0.3601 -0.878 4.2331 -2.98177e-016 1.98785e-016 -3.18055e-015 -1.8127 -1.216 2.2227 -2.98177e-016 3.97569e-016 -0 -0.9571 1.114 1.7695 4.96962e-016 0 -6.36111e-015 -4.1246 0.487 4.1451 -9.93923e-017 3.97569e-016 -0 -3.4052 -1.454 2.7682 -8.94531e-016 5.96354e-016 -0 -1.4531 -1.795 1.2713 -3.97569e-016 3.97569e-016 -0 -5.6954 0.21 2.1184 -9.93923e-017 3.97569e-016 -0 -3.9766 -1.54 2.3863 -8.94531e-016 5.96354e-016 -0 -1.4042 -1.926 1.125 -3.97569e-016 3.97569e-016 -0 -2.0956 0.66 -0.3894 4.96962e-016 0 -6.36111e-015 -5.0395 -0.09 2.4971 -9.93923e-017 3.97569e-016 -0 -3.7921 -1.552 1.4806 -8.94531e-016 5.96354e-016 -0 -1.4655 -1.808 0.9609 -3.97569e-016 3.97569e-016 -0 -4.9141 -1.269 0.3592 -9.93923e-017 3.97569e-016 -0 -3.1477 -1.685 0.8462 -8.94531e-016 5.96354e-016 -0 -0.8055 -1.585 0.7955 -3.97569e-016 3.97569e-016 -0 8.367 -8.2066 0.5982 -4.66115 -1.03232 0.120763 2.1923 -43.463 -0.4932 0.00990601 1.55097 0.177175 0.7333 -45.8593 -2.6451 4.65196 -0.54114 -0.255042 -8.367 -8.2066 0.5982 4.66115 -1.03222 -0.120763 -2.1923 -43.463 -0.4931 -0.00990459 1.5509 -0.177176 -0.7333 -45.8593 -2.6451 -4.65196 -0.541171 0.255041 
42.309 28.2203 -6.01086 -0.00885383 -58.9983 179.995 0 -1.186 -1.5018 -0.183797 8.09202 -0.142317 0 9.964 0.2134 -0.352414 16.1843 -0.262092 -7.10543e-015 13.134 -3.2573 -0.352414 16.1844 -0.262091 0 20.686 -1.6905 8.16915e-007 -33.0001 2.49605e-006 0 7.238 -0.1237 -1.0619e-007 -15.0017 4.56388e-008 1.7069 20.075 5.0056 3.90468 -14.9299 -75.5653 13.6458 -0.047 -4.849 0.874052 -3.85918 15.1631 28.3255 -0.9759 2.2888 -2.35437 -10.9277 5.39307 22.1583 -0.53 10.8316 59.8431 -32.2675 8.57528 0.786 0.112 2.5817 -4.77083e-015 -3.18055e-015 -6.36111e-015 0.3601 -0.878 4.2331 -7.67673e-007 1.50743e-006 1.88338e-007 1.8127 -1.216 2.2227 -3.18055e-015 -3.18055e-015 6.36111e-015 0.9571 1.114 1.7695 -4.77083e-015 1.59028e-015 -6.36111e-015 4.1246 0.487 4.1451 -1.59028e-015 0 -3.18055e-015 3.4052 -1.454 2.7682 -7.67673e-007 1.50743e-006 1.88338e-007 1.4531 -1.795 1.2713 -4.77083e-015 -4.77083e-015 1.90833e-014 5.6954 0.21 2.1184 -1.59028e-015 0 -3.18055e-015 3.9766 -1.54 2.3863 -7.67673e-007 1.50743e-006 1.88338e-007 1.4042 -1.926 1.125 -4.77083e-015 -4.77083e-015 1.90833e-014 2.0956 0.66 -0.3894 -4.77083e-015 1.59028e-015 -6.36111e-015 5.0395 -0.09 2.4971 -1.59028e-015 0 -3.18055e-015 3.7921 -1.552 1.4806 -7.67673e-007 1.50743e-006 1.88338e-007 1.4655 -1.808 0.9609 -4.77083e-015 -4.77083e-015 1.90833e-014 4.9141 -1.269 0.3591 -1.59028e-015 0 -3.18055e-015 3.1477 -1.685 0.8462 -7.67673e-007 1.50743e-006 1.88338e-007 0.8055 -1.585 0.7955 -4.77083e-015 -4.77083e-015 1.90833e-014 -1.7069 20.075 5.0056 -1.25624 -9.98159 45.3246 -13.6458 -0.047 -4.849 -2.50009 -4.91193 33.2164 -28.3255 -0.9759 2.2888 -5.36896 -11.2482 -15.0581 -22.1583 -0.53 10.8316 -63.3475 -24.2728 -13.7432 -0.786 0.112 2.5817 3.18055e-015 7.95139e-016 -3.18055e-015 -0.3601 -0.878 4.2331 6.36111e-015 1.59028e-015 -1.59028e-014 -1.8127 -1.216 2.2227 4.77083e-015 0 -1.59028e-014 -0.9571 1.114 1.7695 -1.59028e-015 0 6.36111e-015 -4.1246 0.487 4.1451 -1.59028e-015 0 3.18055e-015 -3.4052 -1.454 2.7682 3.18055e-015 1.59028e-015 -6.36111e-015 -1.4531 -1.795 1.2713 3.18055e-015 1.59028e-015 -1.90833e-014 -5.6954 0.21 2.1184 -1.59028e-015 0 3.18055e-015 -3.9766 -1.54 2.3863 3.18055e-015 1.59028e-015 -6.36111e-015 -1.4042 -1.926 1.125 3.18055e-015 1.59028e-015 -1.90833e-014 -2.0956 0.66 -0.3894 -1.59028e-015 0 6.36111e-015 -5.0395 -0.09 2.4971 -1.59028e-015 0 3.18055e-015 -3.7921 -1.552 1.4806 3.18055e-015 1.59028e-015 -6.36111e-015 -1.4655 -1.808 0.9609 3.18055e-015 1.59028e-015 -1.90833e-014 -4.9141 -1.269 0.3592 -1.59028e-015 0 3.18055e-015 -3.1477 -1.685 0.8462 3.18055e-015 1.59028e-015 -6.36111e-015 -0.8055 -1.585 0.7955 3.18055e-015 1.59028e-015 -1.90833e-014 8.367 -8.2066 0.5982 151.626 -6.48431 178.97 2.1923 -43.463 -0.4932 135.978 66.9532 -130.846 0.7333 -45.8593 -2.6451 14.9995 2.50161 3.35375 -8.367 -8.2066 0.5982 -151.627 -6.47025 -178.996 -2.1923 -43.463 -0.4931 -135.875 66.9414 130.735 -0.7333 -45.8593 -2.6451 -15.0221 2.53189 -3.3852 
42.3105 28.0675 -5.77075 -0.00872352 -58.2707 179.995 0 -1.186 -1.5018 -0.184259 8.09196 -0.142038 7.10543e-015 9.964 0.2134 -0.353392 16.1843 -0.261457 0 13.134 -3.2573 -0.353392 16.1843 -0.261457 -7.10543e-015 20.686 -1.6905 -4.31002e-005 -33.05 -2.44403e-005 0 7.238 -0.1237 1.60267e-008 -15.0613 -1.14421e-007 1.7069 20.075 5.0056 3.77635 -14.4405 -74.3822 13.6458 -0.047 -4.849 0.962011 -3.85036 13.4566 28.3255 -0.9759 2.2888 -2.29935 -10.9425 5.92698 22.1583 -0.53 10.8316 58.7995 -31.9358 8.08481 0.786 0.112 2.5817 -7.60019e-007 -1.31589e-006 -3.32992e-006 0.3601 -0.878 4.2331 -4.77083e-015 3.18055e-015 3.18055e-015 1.8127 -1.216 2.2227 -6.58164e-009 -9.3277e-007 -3.25815e-006 0.9571 1.114 1.7695 -1.59028e-015 -1.59028e-015 3.18055e-015 4.1246 0.487 4.1451 -7.60019e-007 -1.31589e-006 -3.32992e-006 3.4052 -1.454 2.7682 -1.59028e-015 4.77083e-015 3.18055e-015 1.4531 -1.795 1.2713 -6.58164e-009 -9.3277e-007 -3.25815e-006 5.6954 0.21 2.1184 -7.60019e-007 -1.31589e-006 -3.32992e-006 3.9766 -1.54 2.3863 -1.59028e-015 4.77083e-015 3.18055e-015 1.4042 -1.926 1.125 -6.58164e-009 -9.3277e-007 -3.25815e-006 2.0956 0.66 -0.3894 -1.59028e-015 -1.59028e-015 3.18055e-015 5.0395 -0.09 2.4971 -7.60019e-007 -1.31589e-006 -3.32992e-006 3.7921 -1.552 1.4806 -1.59028e-015 4.77083e-015 3.18055e-015 1.4655 -1.808 0.9609 -6.58164e-009 -9.3277e-007 -3.25815e-006 4.9141 -1.269 0.3591 -7.60019e-007 -1.31589e-006 -3.32992e-006 3.1477 -1.685 0.8462 -1.59028e-015 4.77083e-015 3.18055e-015 0.8055 -1.585 0.7955 -6.58164e-009 -9.3277e-007 -3.25815e-006 -1.7069 20.075 5.0056 -1.23191 -9.88185 47.0572 -13.6458 -0.047 -4.849 -2.4581 -4.82631 30.9794 -28.3255 -0.9759 2.2888 -5.01211 -11.2692 -14.4399 -22.1583 -0.53 10.8316 -62.7643 -24.0376 -13.4518 -0.786 0.112 2.5817 3.16045e-007 8.4232e-008 2.98034e-007 -0.3601 -0.878 4.2331 1.80723e-007 3.85136e-007 2.85846e-006 -1.8127 -1.216 2.2227 4.77083e-015 1.59028e-015 -0 -0.9571 1.114 1.7695 -1.59028e-015 2.38542e-015 -0 -4.1246 0.487 4.1451 3.16045e-007 8.4232e-008 2.98034e-007 -3.4052 -1.454 2.7682 1.80723e-007 3.85136e-007 2.85846e-006 -1.4531 -1.795 1.2713 -8.82781e-032 1.59028e-015 3.18055e-015 -5.6954 0.21 2.1184 3.16045e-007 8.4232e-008 2.98034e-007 -3.9766 -1.54 2.3863 1.80723e-007 3.85136e-007 2.85846e-006 -1.4042 -1.926 1.125 -8.82781e-032 1.59028e-015 3.18055e-015 -2.0956 0.66 -0.3894 -1.59028e-015 2.38542e-015 -0 -5.0395 -0.09 2.4971 3.16045e-007 8.4232e-008 2.98034e-007 -3.7921 -1.552 1.4806 1.80723e-007 3.85136e-007 2.85846e-006 -1.4655 -1.808 0.9609 -8.82781e-032 1.59028e-015 3.18055e-015 -4.9141 -1.269 0.3592 3.16045e-007 8.4232e-008 2.98034e-007 -3.1477 -1.685 0.8462 1.80723e-007 3.85136e-007 2.85846e-006 -0.8055 -1.585 0.7955 -8.82781e-032 1.59028e-015 3.18055e-015 8.367 -8.2066 0.5982 150.738 -6.44239 179.2 2.1923 -43.463 -0.4932 135.964 66.9604 -130.858 0.7333 -45.8593 -2.6451 16.07 2.59603 2.61524 -8.367 -8.2066 0.5982 -151.01 -6.53605 -179.108 -2.1923 -43.463 -0.4931 -135.862 66.9472 130.739 -0.7333 -45.8593 -2.6451 -15.8238 2.68224 -2.84374 
42.3118 27.9145 -5.53058 -0.00857641 -57.5493 179.995 -7.10543e-015 -1.186 -1.5018 -0.184719 8.09192 -0.141754 0 9.964 0.2134 -0.354366 16.1843 -0.260812 0 13.134 -3.2573 -0.354366 16.1842 -0.260813 -7.10543e-015 20.686 -1.6905 -1.4218e-006 -33.1014 -5.17208e-007 0 7.238 -0.1237 1.8112e-007 -15.1208 1.70332e-007 1.7069 20.075 5.0056 3.63762 -13.9526 -73.1981 13.6458 -0.047 -4.849 1.05052 -3.84416 11.7439 28.3255 -0.9759 2.2888 -2.24415 -10.9567 6.46114 22.1583 -0.53 10.8316 57.762 -31.5963 7.60274 0.786 0.112 2.5817 3.70813e-007 1.13549e-006 1.74503e-007 0.3601 -0.878 4.2331 -1.59028e-014 -1.90833e-014 -6.36111e-015 1.8127 -1.216 2.2227 1.13549e-006 -3.70813e-007 -2.3701e-008 0.9571 1.114 1.7695 -1.59028e-015 -1.59028e-015 3.18055e-015 4.1246 0.487 4.1451 3.70813e-007 1.13549e-006 1.74503e-007 3.4052 -1.454 2.7682 -1.11319e-014 -1.43125e-014 -1.27222e-014 1.4531 -1.795 1.2713 1.13549e-006 -3.70813e-007 -2.3701e-008 5.6954 0.21 2.1184 3.70813e-007 1.13549e-006 1.74503e-007 3.9766 -1.54 2.3863 -1.11319e-014 -1.43125e-014 -1.27222e-014 1.4042 -1.926 1.125 1.13549e-006 -3.70813e-007 -2.3701e-008 2.0956 0.66 -0.3894 -1.59028e-015 -1.59028e-015 3.18055e-015 5.0395 -0.09 2.4971 3.70813e-007 1.13549e-006 1.74503e-007 3.7921 -1.552 1.4806 -1.11319e-014 -1.43125e-014 -1.27222e-014 1.4655 -1.808 0.9609 1.13549e-006 -3.70813e-007 -2.3701e-008 4.9141 -1.269 0.3591 3.70813e-007 1.13549e-006 1.74503e-007 3.1477 -1.685 0.8462 -1.11319e-014 -1.43125e-014 -1.27222e-014 0.8055 -1.585 0.7955 1.13549e-006 -3.70813e-007 -2.3701e-008 -1.7069 20.075 5.0056 -1.21061 -9.78102 48.7958 -13.6458 -0.047 -4.849 -2.41252 -4.74191 28.7285 -28.3255 -0.9759 2.2888 -4.65482 -11.2863 -13.8212 -22.1583 -0.53 10.8316 -62.1833 -23.7997 -13.1634 -0.786 0.112 2.5817 -1.59028e-015 3.18055e-015 9.54166e-015 -0.3601 -0.878 4.2331 3.18055e-015 3.18055e-015 3.18055e-015 -1.8127 -1.216 2.2227 -1.23589e-030 5.56597e-015 1.27222e-014 -0.9571 1.114 1.7695 -3.18055e-015 7.95139e-016 9.54166e-015 -4.1246 0.487 4.1451 -1.59028e-015 0 9.54166e-015 -3.4052 -1.454 2.7682 1.59028e-015 1.59028e-015 9.54166e-015 -1.4531 -1.795 1.2713 3.53113e-031 3.18055e-015 -6.36111e-015 -5.6954 0.21 2.1184 -1.59028e-015 0 9.54166e-015 -3.9766 -1.54 2.3863 1.59028e-015 1.59028e-015 9.54166e-015 -1.4042 -1.926 1.125 3.53113e-031 3.18055e-015 -6.36111e-015 -2.0956 0.66 -0.3894 -3.18055e-015 7.95139e-016 9.54166e-015 -5.0395 -0.09 2.4971 -1.59028e-015 0 9.54166e-015 -3.7921 -1.552 1.4806 1.59028e-015 1.59028e-015 9.54166e-015 -1.4655 -1.808 0.9609 3.53113e-031 3.18055e-015 -6.36111e-015 -4.9141 -1.269 0.3592 -1.59028e-015 0 9.54166e-015 -3.1477 -1.685 0.8462 1.59028e-015 1.59028e-015 9.54166e-015 -0.8055 -1.585 0.7955 3.53113e-031 3.18055e-015 -6.36111e-015 8.367 -8.2066 0.5982 149.849 -6.40348 179.43 2.1923 -43.463 -0.4932 135.951 66.9672 -130.872 0.7333 -45.8593 -2.6451 17.1432 2.67706 1.87402 -8.367 -8.2066 0.5982 -150.393 -6.60271 -179.219 -2.1923 -43.463 -0.4931 -135.85 66.9526 130.744 -0.7333 -45.8593 -2.6451 -16.6275 2.82511 -2.29984 
